<?xml version="1.0" standalone="no"?>
<!DOCTYPE svg PUBLIC "-//W3C//DTD SVG 20010904//EN"
 "http://www.w3.org/TR/2001/REC-SVG-20010904/DTD/svg10.dtd">
<svg version="1.0" xmlns="http://www.w3.org/2000/svg"
 width="300.000000pt" height="230.000000pt" viewBox="0 0 300.000000 230.000000"
 preserveAspectRatio="xMidYMid meet">

<g transform="translate(0.000000,230.000000) scale(0.100000,-0.100000)"
fill="#000000" stroke="none">
<path d="M936 1666 c5 -13 4 -17 -4 -12 -7 4 -18 4 -24 -1 -7 -4 -20 -8 -28
-10 -7 -1 -23 -12 -33 -25 -10 -13 -16 -16 -12 -8 4 8 -2 5 -12 -8 -10 -12
-29 -24 -43 -27 -14 -3 -30 -12 -36 -20 -6 -8 -16 -15 -23 -15 -6 0 -11 -5
-11 -11 0 -5 -4 -8 -9 -4 -6 3 -15 -4 -21 -15 -6 -11 -15 -18 -21 -15 -5 4 -9
4 -9 2 0 -19 346 -777 363 -795 34 -37 71 -52 127 -52 56 0 93 15 127 52 26
27 185 379 187 413 0 13 4 21 7 19 4 -2 10 3 13 12 3 8 2 13 -3 10 -4 -3 -19
7 -32 22 -18 20 -19 23 -4 12 20 -14 20 -14 1 7 -10 12 -21 21 -25 20 -3 0
-37 30 -75 68 -39 39 -59 56 -45 40 18 -23 14 -21 -13 7 -21 20 -38 34 -38 30
-1 -4 -6 3 -13 15 -12 21 -14 18 -46 -52 -18 -41 -36 -75 -40 -75 -4 0 -49 93
-100 208 -51 114 -98 212 -103 217 -6 6 -6 3 -2 -9z"/>
<path d="M2031 1589 c-16 -35 -59 -129 -95 -208 -73 -160 -73 -147 -5 -238 47
-63 109 -102 176 -109 l48 -6 59 133 c32 73 70 159 83 191 l24 59 -31 39 c-17
21 -39 42 -50 45 -10 3 -39 31 -65 61 -26 30 -50 52 -53 49 -3 -3 -18 7 -34
22 l-28 26 -29 -64z"/>
<path d="M1596 1025 c9 -22 18 -46 21 -52 3 -7 9 -10 14 -7 5 3 6 -1 4 -9 -5
-12 24 -84 87 -215 29 -61 91 -96 162 -90 29 2 63 12 77 22 17 13 19 17 5 12
-15 -5 -17 -4 -7 7 9 11 8 17 -2 26 -8 6 -17 8 -20 4 -4 -3 -7 0 -7 8 0 9 -15
28 -32 45 l-33 29 25 -30 25 -31 -32 32 c-17 18 -35 29 -39 26 -4 -4 -4 -2 -1
4 7 12 -16 38 -25 28 -3 -3 -9 0 -14 7 -5 8 -3 10 7 4 12 -8 12 -6 0 8 -7 9
-17 15 -21 12 -4 -2 -37 29 -74 70 -37 42 -72 73 -77 70 -5 -4 -9 0 -9 7 0 9
-3 9 -10 -2 -9 -13 -10 -13 -10 1 0 8 -7 24 -15 35 -13 16 -13 13 1 -21z m74
-50 c13 -14 21 -25 18 -25 -2 0 -15 11 -28 25 -13 14 -21 25 -18 25 2 0 15
-11 28 -25z"/>
</g>
</svg>
